<svg xmlns="http://www.w3.org/2000/svg" xmlns:xlink="http://www.w3.org/1999/xlink" width="1000" height="766" viewBox="0 0 428 328" role="img" aria-label="Altium schematic sheet" class="altium-sheet" data-renderer="altiumts">
  <title>Altium schematic sheet</title>
  <rect width="100%" height="100%" fill="#e2e8f0"/>
  <g stroke-linecap="round" stroke-linejoin="round">
    <defs><clipPath id="altium-sheet-paper"><rect x="14" y="14" width="400" height="300"/></clipPath></defs>
    <g data-record="SheetBorder" fill="#fffef8" stroke="#334155" stroke-width="1"><rect x="14" y="14" width="400" height="300"/><rect x="24" y="24" width="380" height="280" fill="none"/><path d="M 87.3333 14 V 24 M 87.3333 304 V 314"/><path d="M 150.6667 14 V 24 M 150.6667 304 V 314"/><path d="M 214 14 V 24 M 214 304 V 314"/><path d="M 277.3333 14 V 24 M 277.3333 304 V 314"/><path d="M 340.6667 14 V 24 M 340.6667 304 V 314"/><path d="M 14 94 H 24 M 404 94 H 414"/><path d="M 14 164 H 24 M 404 164 H 414"/><path d="M 14 234 H 24 M 404 234 H 414"/></g>
    <g data-sheet-content="true" clip-path="url(#altium-sheet-paper)">
    <rect data-record="14" x="100" y="199" width="40" height="30" rx="0" fill="none" stroke="#880000" stroke-width="1"/>
    <text data-record="34" x="0" y="0" fill="#1f2937" font-family="Arial" font-size="10" font-style="normal" font-weight="normal" text-decoration="none" text-anchor="start" dominant-baseline="text-after-edge" transform="translate(100 241) rotate(0)">R1</text>
    <text data-record="41" x="0" y="0" fill="#1f2937" font-family="Arial" font-size="9" font-style="normal" font-weight="normal" text-decoration="none" text-anchor="start" dominant-baseline="text-after-edge" transform="translate(100 187) rotate(0)">1kΩ</text>
    <g data-record="2"><line x1="114" y1="214" x2="104" y2="214" stroke="#880000" stroke-width="1"/><text x="0" y="0" fill="#880000" font-family="Arial, sans-serif" font-size="6" text-anchor="end" dominant-baseline="text-after-edge" transform="translate(112 214) rotate(0)">1</text><text x="0" y="0" fill="#880000" font-family="Arial, sans-serif" font-size="6" text-anchor="start" dominant-baseline="text-after-edge" transform="translate(116 214) rotate(0)">anode</text></g>
    <g data-record="2"><line x1="126" y1="214" x2="136" y2="214" stroke="#880000" stroke-width="1"/><text x="0" y="0" fill="#880000" font-family="Arial, sans-serif" font-size="6" text-anchor="start" dominant-baseline="text-after-edge" transform="translate(128 214) rotate(0)">2</text><text x="0" y="0" fill="#880000" font-family="Arial, sans-serif" font-size="6" text-anchor="end" dominant-baseline="text-after-edge" transform="translate(124 214) rotate(0)">cathode</text></g>
    <rect data-record="14" x="180" y="199" width="40" height="30" rx="0" fill="none" stroke="#880000" stroke-width="1"/>
    <text data-record="34" x="0" y="0" fill="#1f2937" font-family="Arial" font-size="10" font-style="normal" font-weight="normal" text-decoration="none" text-anchor="start" dominant-baseline="text-after-edge" transform="translate(180 241) rotate(0)">C1</text>
    <text data-record="41" x="0" y="0" fill="#1f2937" font-family="Arial" font-size="9" font-style="normal" font-weight="normal" text-decoration="none" text-anchor="start" dominant-baseline="text-after-edge" transform="translate(180 187) rotate(0)">1uF</text>
    <g data-record="2"><line x1="194" y1="214" x2="184" y2="214" stroke="#880000" stroke-width="1"/><text x="0" y="0" fill="#880000" font-family="Arial, sans-serif" font-size="6" text-anchor="end" dominant-baseline="text-after-edge" transform="translate(192 214) rotate(0)">1</text><text x="0" y="0" fill="#880000" font-family="Arial, sans-serif" font-size="6" text-anchor="start" dominant-baseline="text-after-edge" transform="translate(196 214) rotate(0)">pos</text></g>
    <g data-record="2"><line x1="206" y1="214" x2="216" y2="214" stroke="#880000" stroke-width="1"/><text x="0" y="0" fill="#880000" font-family="Arial, sans-serif" font-size="6" text-anchor="start" dominant-baseline="text-after-edge" transform="translate(208 214) rotate(0)">2</text><text x="0" y="0" fill="#880000" font-family="Arial, sans-serif" font-size="6" text-anchor="end" dominant-baseline="text-after-edge" transform="translate(204 214) rotate(0)">neg</text></g>
    <polyline data-record="27" points="194,214 126,214" fill="none" stroke="#008800" stroke-width="1"/>
    </g>
  </g>
</svg>